<svg width="51" height="16" viewBox="0 0 51 16" fill="black" xmlns="http://www.w3.org/2000/svg">
<path d="M0.264205 15V0.454545H9.89489V2.99006H3.33949V6.45597H9.25568V8.99148H3.33949V15H0.264205ZM11.9634 15V0.454545H15.0387V12.4645H21.2745V15H11.9634ZM35.5785 5.54688H32.4677C32.4109 5.14441 32.2949 4.78693 32.1197 4.47443C31.9445 4.1572 31.7196 3.88731 31.445 3.66477C31.1703 3.44223 30.8531 3.27178 30.4933 3.15341C30.1381 3.03504 29.7522 2.97585 29.3356 2.97585C28.5827 2.97585 27.927 3.16288 27.3683 3.53693C26.8095 3.90625 26.3763 4.44602 26.0685 5.15625C25.7608 5.86174 25.6069 6.71875 25.6069 7.72727C25.6069 8.7642 25.7608 9.63542 26.0685 10.3409C26.381 11.0464 26.8166 11.5791 27.3754 11.9389C27.9341 12.2988 28.5804 12.4787 29.3143 12.4787C29.7262 12.4787 30.1074 12.4242 30.4577 12.3153C30.8129 12.2064 31.1277 12.0478 31.4023 11.8395C31.677 11.6264 31.9042 11.3684 32.0842 11.0653C32.2688 10.7623 32.3967 10.4167 32.4677 10.0284L35.5785 10.0426C35.498 10.7102 35.2968 11.3542 34.9748 11.9744C34.6576 12.59 34.229 13.1416 33.6893 13.6293C33.1542 14.1122 32.515 14.4957 31.7717 14.7798C31.033 15.0592 30.1973 15.1989 29.2646 15.1989C27.9672 15.1989 26.8072 14.9053 25.7844 14.3182C24.7665 13.7311 23.9615 12.8812 23.3697 11.7685C22.7826 10.6558 22.489 9.30871 22.489 7.72727C22.489 6.1411 22.7873 4.79167 23.3839 3.67898C23.9805 2.56629 24.7901 1.71875 25.8129 1.13636C26.8356 0.549242 27.9862 0.255681 29.2646 0.255681C30.1074 0.255681 30.8886 0.374053 31.6083 0.610795C32.3327 0.847538 32.9743 1.19318 33.533 1.64773C34.0917 2.09754 34.5463 2.64915 34.8967 3.30256C35.2518 3.95597 35.479 4.70407 35.5785 5.54688ZM37.7837 15V0.454545H40.859V6.8679H41.0508L46.2852 0.454545H49.9712L44.5735 6.96733L50.0352 15H46.3562L42.3718 9.01989L40.859 10.8665V15H37.7837Z" fill="#060A09"/>
</svg>
