<svg width="43" height="43" viewBox="0 0 43 43" fill="none" xmlns="http://www.w3.org/2000/svg">
<path d="M21.5 3.58333C19.1472 3.58333 16.8174 4.04676 14.6436 4.94715C12.4699 5.84755 10.4948 7.16728 8.83104 8.831C5.47102 12.191 3.58337 16.7482 3.58337 21.5C3.58337 29.4192 8.72546 36.1379 15.8384 38.5208C16.7342 38.6642 17.0209 38.1087 17.0209 37.625V34.5971C12.058 35.6721 11.0009 32.1962 11.0009 32.1962C10.1767 30.1179 9.01212 29.5625 9.01212 29.5625C7.38171 28.4517 9.13754 28.4875 9.13754 28.4875C10.9292 28.6129 11.8788 30.3329 11.8788 30.3329C13.4375 33.0562 16.0713 32.25 17.0925 31.82C17.2538 30.6554 17.7196 29.8671 18.2213 29.4192C14.2438 28.9712 10.0692 27.4304 10.0692 20.6042C10.0692 18.6154 10.75 17.0208 11.9146 15.7487C11.7355 15.3008 11.1084 13.4375 12.0938 11.0187C12.0938 11.0187 13.5988 10.535 17.0209 12.8462C18.4363 12.4521 19.9771 12.255 21.5 12.255C23.023 12.255 24.5638 12.4521 25.9792 12.8462C29.4013 10.535 30.9063 11.0187 30.9063 11.0187C31.8917 13.4375 31.2646 15.3008 31.0855 15.7487C32.25 17.0208 32.9309 18.6154 32.9309 20.6042C32.9309 27.4483 28.7384 28.9533 24.743 29.4012C25.388 29.9567 25.9792 31.0496 25.9792 32.7158V37.625C25.9792 38.1087 26.2659 38.6821 27.1796 38.5208C34.2925 36.12 39.4167 29.4192 39.4167 21.5C39.4167 19.1471 38.9533 16.8173 38.0529 14.6436C37.1525 12.4698 35.8328 10.4947 34.169 8.831C32.5053 7.16728 30.5302 5.84755 28.3565 4.94715C26.1827 4.04676 23.8529 3.58333 21.5 3.58333Z" fill="#060A09"/>
</svg>
