<svg width="36" height="36" viewBox="0 0 36 36" fill="none" xmlns="http://www.w3.org/2000/svg">
<circle cx="18" cy="18" r="18" fill="#060A09"/>
<g clip-path="url(#clip0_10_17)">
<path d="M17.25 9.75V7.5C17.25 7.30109 17.329 7.11032 17.4697 6.96967C17.6103 6.82902 17.8011 6.75 18 6.75C18.1989 6.75 18.3897 6.82902 18.5303 6.96967C18.671 7.11032 18.75 7.30109 18.75 7.5V9.75C18.75 9.94891 18.671 10.1397 18.5303 10.2803C18.3897 10.421 18.1989 10.5 18 10.5C17.8011 10.5 17.6103 10.421 17.4697 10.2803C17.329 10.1397 17.25 9.94891 17.25 9.75ZM18 12C16.8133 12 15.6533 12.3519 14.6666 13.0112C13.6799 13.6705 12.9108 14.6075 12.4567 15.7039C12.0026 16.8003 11.8838 18.0067 12.1153 19.1705C12.3468 20.3344 12.9182 21.4035 13.7574 22.2426C14.5965 23.0818 15.6656 23.6532 16.8295 23.8847C17.9933 24.1162 19.1997 23.9974 20.2961 23.5433C21.3925 23.0892 22.3295 22.3201 22.9888 21.3334C23.6481 20.3467 24 19.1867 24 18C23.9983 16.4092 23.3656 14.8841 22.2407 13.7593C21.1159 12.6344 19.5908 12.0017 18 12ZM11.4694 12.5306C11.6101 12.6714 11.801 12.7504 12 12.7504C12.199 12.7504 12.3899 12.6714 12.5306 12.5306C12.6714 12.3899 12.7504 12.199 12.7504 12C12.7504 11.801 12.6714 11.6101 12.5306 11.4694L11.0306 9.96938C10.8899 9.82864 10.699 9.74958 10.5 9.74958C10.301 9.74958 10.1101 9.82864 9.96938 9.96938C9.82864 10.1101 9.74958 10.301 9.74958 10.5C9.74958 10.699 9.82864 10.8899 9.96938 11.0306L11.4694 12.5306ZM11.4694 23.4694L9.96938 24.9694C9.82864 25.1101 9.74958 25.301 9.74958 25.5C9.74958 25.699 9.82864 25.8899 9.96938 26.0306C10.1101 26.1714 10.301 26.2504 10.5 26.2504C10.699 26.2504 10.8899 26.1714 11.0306 26.0306L12.5306 24.5306C12.6003 24.4609 12.6556 24.3782 12.6933 24.2872C12.731 24.1961 12.7504 24.0985 12.7504 24C12.7504 23.9015 12.731 23.8039 12.6933 23.7128C12.6556 23.6218 12.6003 23.5391 12.5306 23.4694C12.4609 23.3997 12.3782 23.3444 12.2872 23.3067C12.1961 23.269 12.0985 23.2496 12 23.2496C11.9015 23.2496 11.8039 23.269 11.7128 23.3067C11.6218 23.3444 11.5391 23.3997 11.4694 23.4694ZM24 12.75C24.0985 12.7501 24.1961 12.7307 24.2871 12.6931C24.3782 12.6555 24.4609 12.6003 24.5306 12.5306L26.0306 11.0306C26.1714 10.8899 26.2504 10.699 26.2504 10.5C26.2504 10.301 26.1714 10.1101 26.0306 9.96938C25.8899 9.82864 25.699 9.74958 25.5 9.74958C25.301 9.74958 25.1101 9.82864 24.9694 9.96938L23.4694 11.4694C23.3644 11.5743 23.2928 11.708 23.2639 11.8535C23.2349 11.9991 23.2497 12.15 23.3065 12.2871C23.3633 12.4242 23.4596 12.5414 23.583 12.6238C23.7065 12.7062 23.8516 12.7501 24 12.75ZM24.5306 23.4694C24.3899 23.3286 24.199 23.2496 24 23.2496C23.801 23.2496 23.6101 23.3286 23.4694 23.4694C23.3286 23.6101 23.2496 23.801 23.2496 24C23.2496 24.199 23.3286 24.3899 23.4694 24.5306L24.9694 26.0306C25.0391 26.1003 25.1218 26.1556 25.2128 26.1933C25.3039 26.231 25.4015 26.2504 25.5 26.2504C25.5985 26.2504 25.6961 26.231 25.7872 26.1933C25.8782 26.1556 25.9609 26.1003 26.0306 26.0306C26.1003 25.9609 26.1556 25.8782 26.1933 25.7872C26.231 25.6961 26.2504 25.5985 26.2504 25.5C26.2504 25.4015 26.231 25.3039 26.1933 25.2128C26.1556 25.1218 26.1003 25.0391 26.0306 24.9694L24.5306 23.4694ZM10.5 18C10.5 17.8011 10.421 17.6103 10.2803 17.4697C10.1397 17.329 9.94891 17.25 9.75 17.25H7.5C7.30109 17.25 7.11032 17.329 6.96967 17.4697C6.82902 17.6103 6.75 17.8011 6.75 18C6.75 18.1989 6.82902 18.3897 6.96967 18.5303C7.11032 18.671 7.30109 18.75 7.5 18.75H9.75C9.94891 18.75 10.1397 18.671 10.2803 18.5303C10.421 18.3897 10.5 18.1989 10.5 18ZM18 25.5C17.8011 25.5 17.6103 25.579 17.4697 25.7197C17.329 25.8603 17.25 26.0511 17.25 26.25V28.5C17.25 28.6989 17.329 28.8897 17.4697 29.0303C17.6103 29.171 17.8011 29.25 18 29.25C18.1989 29.25 18.3897 29.171 18.5303 29.0303C18.671 28.8897 18.75 28.6989 18.75 28.5V26.25C18.75 26.0511 18.671 25.8603 18.5303 25.7197C18.3897 25.579 18.1989 25.5 18 25.5ZM28.5 17.25H26.25C26.0511 17.25 25.8603 17.329 25.7197 17.4697C25.579 17.6103 25.5 17.8011 25.5 18C25.5 18.1989 25.579 18.3897 25.7197 18.5303C25.8603 18.671 26.0511 18.75 26.25 18.75H28.5C28.6989 18.75 28.8897 18.671 29.0303 18.5303C29.171 18.3897 29.25 18.1989 29.25 18C29.25 17.8011 29.171 17.6103 29.0303 17.4697C28.8897 17.329 28.6989 17.25 28.5 17.25Z" fill="#f4f4f4"/>
</g>
<defs>
<clipPath id="clip0_10_17">
<rect width="24" height="24" fill="white" transform="translate(6 6)"/>
</clipPath>
</defs>
</svg>
