<svg width="36" height="36" viewBox="0 0 36 36" fill="none" xmlns="http://www.w3.org/2000/svg">
<path d="M22.3192 13.6585C25.1769 16.5161 27.4216 19.5809 28.7341 22.2716C30.3155 25.5136 30.5398 28.2549 29.4002 29.3944C28.2127 30.582 25.3042 30.3475 21.8564 28.6157C19.2497 27.3064 16.3345 25.0685 13.6219 22.3558C10.8406 19.5746 8.52487 16.6231 7.22185 13.9669C5.57305 10.6055 5.41843 7.74228 6.58327 6.57744C7.71355 5.4471 10.3781 5.61408 13.5849 7.16286C16.2944 8.47158 19.4337 10.7729 22.3192 13.6585Z" stroke="#F4F4F4" stroke-width="2" stroke-miterlimit="10"/>
<path d="M16.3759 12.0675C20.279 11.0196 24.0552 10.6063 27.0419 10.8134C30.6403 11.063 33.1271 12.2382 33.545 13.7947C33.9805 15.4166 32.3243 17.819 29.1018 19.9407C26.6653 21.5447 23.2704 22.952 19.5653 23.9468C15.7666 24.9667 12.0529 25.4983 9.10081 25.3C5.36521 25.0492 2.80777 23.7527 2.38057 22.1617C1.96615 20.6178 3.44185 18.393 6.38557 16.3888C8.87275 14.6954 12.4346 13.1257 16.3759 12.0675Z" stroke="#F4F4F4" stroke-width="2" stroke-miterlimit="10"/>
<path d="M12.0281 16.4224C13.0696 12.5176 14.5973 9.03942 16.2684 6.55542C18.2818 3.5625 20.5419 1.99494 22.0991 2.41026C23.7218 2.84298 24.976 5.47764 25.2047 9.32916C25.3777 12.2411 24.9014 15.8851 23.9128 19.5919C22.8993 23.3924 21.5053 26.8753 19.8591 29.3338C17.7761 32.4449 15.3757 34.0131 13.784 33.5886C12.2394 33.1767 11.0489 30.7871 10.7827 27.2357C10.5578 24.2352 10.9766 20.3654 12.0281 16.4224Z" stroke="#F4F4F4" stroke-width="2" stroke-miterlimit="10"/>
<path d="M18 20.9621C17.9388 20.9621 17.8871 20.941 17.8448 20.8987L15.6441 18.7755C15.6206 18.7567 15.5882 18.7262 15.5471 18.6838C15.5059 18.6415 15.4407 18.5645 15.3513 18.4528C15.262 18.3412 15.182 18.2265 15.1115 18.109C15.041 17.9914 14.9781 17.8492 14.9228 17.6822C14.8676 17.5153 14.84 17.3531 14.84 17.1956C14.84 16.6783 14.9892 16.2739 15.2879 15.9823C15.5865 15.6908 15.9991 15.545 16.5257 15.545C16.6715 15.545 16.8203 15.5702 16.9719 15.6208C17.1235 15.6714 17.2646 15.7396 17.3951 15.8254C17.5256 15.9112 17.6379 15.9917 17.7319 16.067C17.8259 16.1422 17.9153 16.2221 17.9999 16.3068C18.0846 16.2221 18.1739 16.1422 18.2679 16.067C18.362 15.9917 18.4742 15.9112 18.6048 15.8254C18.7353 15.7396 18.8763 15.6714 19.028 15.6208C19.1796 15.5703 19.3284 15.545 19.4741 15.545C20.0008 15.545 20.4134 15.6908 20.712 15.9823C21.0107 16.2739 21.16 16.6783 21.16 17.1956C21.16 17.7152 20.8908 18.2442 20.3523 18.7826L18.1552 20.8987C18.1128 20.941 18.0611 20.9621 18 20.9621Z" fill="#F4F4F4"/>
</svg>
