<svg width="18" height="18" viewBox="0 0 18 18" fill="none" xmlns="http://www.w3.org/2000/svg">
<path d="M15.4856 9.29813L10.4231 14.3606C10.3432 14.4352 10.2374 14.4757 10.1281 14.4738C10.0188 14.4719 9.91451 14.4276 9.83721 14.3503C9.75992 14.273 9.71564 14.1687 9.71371 14.0594C9.71179 13.9501 9.75235 13.8444 9.82687 13.7644L14.1687 9.42188H2.8125C2.70061 9.42188 2.59331 9.37743 2.51419 9.29832C2.43507 9.2192 2.39063 9.11189 2.39062 9.00001C2.39062 8.88812 2.43507 8.78081 2.51419 8.70169C2.59331 8.62258 2.70061 8.57813 2.8125 8.57813H14.1687L9.82687 4.23563C9.75235 4.15566 9.71179 4.04988 9.71371 3.94059C9.71564 3.83129 9.75992 3.72701 9.83721 3.64972C9.91451 3.57242 10.0188 3.52815 10.1281 3.52622C10.2374 3.52429 10.3432 3.56486 10.4231 3.63938L15.4856 8.70188C15.5646 8.78098 15.609 8.88821 15.609 9.00001C15.609 9.1118 15.5646 9.21903 15.4856 9.29813Z" fill="#060A09"/>
</svg>
